<svg width="24" height="24" viewBox="0 0 24 24" fill="none" xmlns="http://www.w3.org/2000/svg">
<path d="M13.8002 18.0002C13.8002 17.0061 12.9943 16.2002 12.0002 16.2002C11.0061 16.2002 10.2002 17.0061 10.2002 18.0002C10.2002 18.9943 11.0061 19.8002 12.0002 19.8002C12.9943 19.8002 13.8002 18.9943 13.8002 18.0002Z" fill="#355CBF"/>
<path d="M13.8002 12.0002C13.8002 12.9943 12.9943 13.8002 12.0002 13.8002C11.0061 13.8002 10.2002 12.9943 10.2002 12.0002C10.2002 11.0061 11.0061 10.2002 12.0002 10.2002C12.9943 10.2002 13.8002 11.0061 13.8002 12.0002Z" fill="#355CBF"/>
<path d="M10.2002 6.0002C10.2002 6.99431 11.0061 7.8002 12.0002 7.8002C12.9943 7.8002 13.8002 6.99431 13.8002 6.0002C13.8002 5.00608 12.9943 4.2002 12.0002 4.2002C11.0061 4.2002 10.2002 5.00608 10.2002 6.0002Z" fill="#355CBF"/>
</svg>
