<svg width="25" height="24" viewBox="0 0 25 24" fill="none" xmlns="http://www.w3.org/2000/svg">
<path d="M15.9249 7.16333C16.7948 7.16333 17.5066 6.45158 17.5066 5.58167C17.5066 4.71175 16.7948 4 15.9249 4C15.055 4 14.3432 4.71175 14.3432 5.58167C14.3432 6.45158 15.055 7.16333 15.9249 7.16333ZM7.62116 12.3038C5.40683 12.3038 3.66699 14.0436 3.66699 16.2579C3.66699 18.4723 5.40683 20.2121 7.62116 20.2121C9.83549 20.2121 11.5753 18.4723 11.5753 16.2579C11.5753 14.0436 9.83549 12.3038 7.62116 12.3038ZM7.62116 19.0258C6.11858 19.0258 4.85324 17.7605 4.85324 16.2579C4.85324 14.7553 6.11858 13.49 7.62116 13.49C9.12374 13.49 10.3891 14.7553 10.3891 16.2579C10.3891 17.7605 9.12374 19.0258 7.62116 19.0258ZM12.208 11.1175L14.106 9.2195L14.7387 9.85217C15.7667 10.8803 17.1112 11.5129 18.7719 11.5129V9.93125C17.5857 9.93125 16.6367 9.45675 15.9249 8.745L14.4223 7.24242C14.0269 6.92608 13.6315 6.76792 13.157 6.76792C12.6825 6.76792 12.2871 6.92608 12.0498 7.24242L9.83549 9.45675C9.51916 9.77308 9.36099 10.1685 9.36099 10.5639C9.36099 11.0384 9.51916 11.4338 9.83549 11.6711L12.3662 13.8854V17.8396H13.9478V12.9364L12.208 11.1175ZM18.6928 12.3038C16.4785 12.3038 14.7387 14.0436 14.7387 16.2579C14.7387 18.4723 16.4785 20.2121 18.6928 20.2121C20.9072 20.2121 22.647 18.4723 22.647 16.2579C22.647 14.0436 20.9072 12.3038 18.6928 12.3038ZM18.6928 19.0258C17.1902 19.0258 15.9249 17.7605 15.9249 16.2579C15.9249 14.7553 17.1902 13.49 18.6928 13.49C20.1954 13.49 21.4607 14.7553 21.4607 16.2579C21.4607 17.7605 20.1954 19.0258 18.6928 19.0258Z" fill="#EB6D26"/>
</svg>
