<svg width="25" height="24" viewBox="0 0 25 24" fill="none" xmlns="http://www.w3.org/2000/svg">
<path d="M18.0492 6.82063C17.8937 6.34125 17.4581 6 16.9448 6H8.38921C7.87588 6 7.4481 6.34125 7.28477 6.82063L5.66699 11.6875V17.1875C5.66699 17.6344 6.01699 18 6.44477 18H7.22255C7.65033 18 8.00033 17.6344 8.00033 17.1875V16.375H17.3337V17.1875C17.3337 17.6344 17.6837 18 18.1114 18H18.8892C19.317 18 19.667 17.6344 19.667 17.1875V11.6875L18.0492 6.82063ZM8.38921 14.9375C7.74366 14.9375 7.22255 14.3931 7.22255 13.7188C7.22255 13.0444 7.74366 12.5 8.38921 12.5C9.03477 12.5 9.55588 13.0444 9.55588 13.7188C9.55588 14.3931 9.03477 14.9375 8.38921 14.9375ZM16.9448 14.9375C16.2992 14.9375 15.7781 14.3931 15.7781 13.7188C15.7781 13.0444 16.2992 12.5 16.9448 12.5C17.5903 12.5 18.1114 13.0444 18.1114 13.7188C18.1114 14.3931 17.5903 14.9375 16.9448 14.9375ZM7.22255 10.875L8.38921 7.21875H16.9448L18.1114 10.875H7.22255Z" fill="#7AC231"/>
</svg>
