<svg width="20" height="20" viewBox="0 0 20 20" fill="none" xmlns="http://www.w3.org/2000/svg">
<path d="M17 13V14H18V13H17ZM17 8H18V7H17V8ZM16 15.3333C16 15.6977 15.6977 16 15.3333 16V18C16.8023 18 18 16.8023 18 15.3333H16ZM15.3333 16H5.66667V18H15.3333V16ZM5.66667 16C5.29721 16 5 15.701 5 15.3333H3C3 16.799 4.18613 18 5.66667 18V16ZM5 15.3333V5.66667H3V15.3333H5ZM5 5.66667C5 5.29903 5.29721 5 5.66667 5V3C4.18613 3 3 4.20097 3 5.66667H5ZM5.66667 5H15.3333V3H5.66667V5ZM15.3333 5C15.6977 5 16 5.30228 16 5.66667H18C18 4.19771 16.8023 3 15.3333 3V5ZM13.5 14H17V12H13.5V14ZM18 13V8H16V13H18ZM17 7H13.5V9H17V7ZM13.5 7C11.567 7 10 8.567 10 10.5H12C12 9.67157 12.6716 9 13.5 9V7ZM13.5 12C12.6716 12 12 11.3284 12 10.5H10C10 12.433 11.567 14 13.5 14V12Z" fill="#355CBF"/>
</svg>
