<svg width="25" height="24" viewBox="0 0 25 24" fill="none" xmlns="http://www.w3.org/2000/svg">
<path d="M14.6276 6.38136C15.5575 6.38136 16.3183 5.62056 16.3183 4.69068C16.3183 3.76081 15.5575 3 14.6276 3C13.6977 3 12.9369 3.76081 12.9369 4.69068C12.9369 5.62056 13.6977 6.38136 14.6276 6.38136ZM11.5844 18.1316L12.4297 14.4121L14.2049 16.1028V21.1748H15.8956V14.8348L14.1204 13.1441L14.6276 10.6081C15.7266 11.8761 17.4172 12.7214 19.277 12.7214V11.0307C17.6708 11.0307 16.3183 10.1854 15.642 9.00192L14.7967 7.64938C14.4585 7.14217 13.9513 6.80403 13.3596 6.80403C13.106 6.80403 12.9369 6.88857 12.6833 6.88857L8.28755 8.74832V12.7214H9.97823V9.84726L11.4998 9.25552L10.1473 16.1028L6.00513 15.2574L5.66699 16.9481L11.5844 18.1316Z" fill="#CA4242"/>
</svg>
