<?xml version="1.0" standalone="no"?>
<!DOCTYPE svg PUBLIC "-//W3C//DTD SVG 20010904//EN"
 "http://www.w3.org/TR/2001/REC-SVG-20010904/DTD/svg10.dtd">
<svg version="1.0" xmlns="http://www.w3.org/2000/svg"
 width="1024.000000pt" height="1024.000000pt" viewBox="0 0 1024.000000 1024.000000"
 preserveAspectRatio="xMidYMid meet">

<g transform="translate(0.000000,1024.000000) scale(0.100000,-0.100000)"
fill="#000000" stroke="none">
<path d="M5055 9776 c-38 -16 -74 -58 -98 -112 l-19 -41 -151 -22 c-276 -42
-420 -71 -547 -111 -242 -76 -424 -185 -581 -348 -180 -186 -287 -390 -359
-685 -61 -250 -88 -447 -126 -922 -45 -565 -35 -1128 25 -1320 57 -187 180
-353 303 -410 29 -14 58 -25 65 -25 32 0 76 -59 131 -173 109 -228 218 -383
394 -563 128 -131 148 -166 148 -258 0 -75 -36 -142 -97 -182 -118 -77 -122
-78 -823 -294 -854 -262 -1137 -361 -1407 -490 -440 -210 -652 -501 -681 -934
-17 -246 4 -527 64 -881 27 -154 38 -187 71 -217 27 -25 521 -241 536 -235 20
7 23 12 796 1163 308 458 376 554 405 568 31 15 201 16 1974 16 l1939 0 34
-23 c18 -12 114 -126 214 -253 99 -127 261 -333 360 -460 522 -667 774 -984
781 -984 8 0 402 169 446 191 21 11 44 32 52 47 15 29 56 261 80 452 39 302
39 651 1 809 -59 246 -234 485 -468 642 -110 74 -173 106 -299 153 -179 66
-1229 415 -1523 506 -386 119 -455 143 -532 186 -126 70 -163 120 -163 216 1
75 14 98 105 180 205 185 359 392 482 648 56 115 86 160 108 160 7 0 44 16 83
35 144 72 262 243 318 460 23 89 27 127 33 340 9 362 6 507 -17 765 -12 129
-24 273 -27 320 -26 382 -61 618 -121 827 -118 414 -323 683 -656 863 -183 98
-713 230 -927 230 -43 0 -53 9 -70 61 -30 94 -159 147 -256 105z m458 -1895
c323 -71 530 -183 792 -431 79 -75 83 -77 270 -154 105 -43 222 -91 262 -108
92 -38 102 -56 110 -216 5 -92 2 -135 -11 -196 -10 -43 -15 -89 -11 -104 15
-60 7 -258 -15 -347 -43 -183 -144 -327 -250 -359 -30 -9 -67 -16 -83 -16 -40
0 -76 -42 -106 -121 -36 -97 -134 -286 -197 -380 -242 -362 -579 -607 -968
-704 -142 -36 -269 -33 -391 9 -110 37 -309 134 -408 199 -305 199 -556 514
-698 876 -37 96 -61 116 -146 127 -122 15 -219 128 -283 329 -19 59 -24 109
-33 315 -16 376 -15 501 5 531 11 17 55 41 139 77 68 28 189 79 268 112 139
58 146 62 235 147 255 245 511 373 853 428 138 22 537 14 666 -14z m-911
-3194 c311 -159 502 -189 767 -121 94 25 265 91 362 139 28 15 55 23 59 18 5
-4 20 -37 35 -73 40 -95 78 -144 163 -212 43 -34 77 -65 77 -69 0 -13 -949
-789 -962 -787 -6 2 -215 176 -464 388 -248 212 -458 390 -466 395 -12 9 -2
19 49 52 127 82 195 180 205 294 3 33 7 59 9 59 1 0 76 -37 166 -83z"/>
<path d="M3255 3111 c-11 -5 -27 -17 -36 -27 -9 -11 -155 -242 -325 -514 -445
-714 -474 -763 -474 -777 0 -11 490 -13 2715 -13 1565 0 2715 4 2715 9 0 8
-83 126 -565 806 -109 154 -232 327 -272 385 -45 64 -86 112 -105 123 -31 16
-137 17 -1833 16 -990 0 -1809 -4 -1820 -8z"/>
<path d="M2389 1043 c0 -307 -2 -566 -4 -576 -3 -16 133 -17 2746 -17 l2749 0
0 575 0 575 -2745 0 -2745 0 -1 -557z"/>
</g>
</svg>
